<?xml version="1.0" encoding="UTF-8" standalone="no"?>
<!-- Created with Inkscape (http://www.inkscape.org/) -->

<svg
   xmlns:dc="http://purl.org/dc/elements/1.1/"
   xmlns:cc="http://creativecommons.org/ns#"
   xmlns:rdf="http://www.w3.org/1999/02/22-rdf-syntax-ns#"
   xmlns:svg="http://www.w3.org/2000/svg"
   xmlns="http://www.w3.org/2000/svg"
   xmlns:sodipodi="http://sodipodi.sourceforge.net/DTD/sodipodi-0.dtd"
   xmlns:inkscape="http://www.inkscape.org/namespaces/inkscape"
   width="1000mm"
   height="381.54596mm"
   viewBox="0 0 999.99999 381.54596"
   version="1.1"
   id="svg1035"
   inkscape:version="0.92.2 (5c3e80d, 2017-08-06)"
   sodipodi:docname="BiG TV.svg">
  <defs
     id="defs1029" />
  <sodipodi:namedview
     id="base"
     pagecolor="#ffffff"
     bordercolor="#666666"
     borderopacity="1.0"
     inkscape:pageopacity="0.0"
     inkscape:pageshadow="2"
     inkscape:zoom="0.35"
     inkscape:cx="616.08458"
     inkscape:cy="523.07017"
     inkscape:document-units="mm"
     inkscape:current-layer="layer1"
     showgrid="false"
     fit-margin-top="0"
     fit-margin-left="0"
     fit-margin-right="0"
     fit-margin-bottom="0"
     inkscape:window-width="1366"
     inkscape:window-height="705"
     inkscape:window-x="-8"
     inkscape:window-y="-8"
     inkscape:window-maximized="1" />
  <metadata
     id="metadata1032">
    <rdf:RDF>
      <cc:Work
         rdf:about="">
        <dc:format>image/svg+xml</dc:format>
        <dc:type
           rdf:resource="http://purl.org/dc/dcmitype/StillImage" />
        <dc:title></dc:title>
      </cc:Work>
    </rdf:RDF>
  </metadata>
  <g
     inkscape:label="Layer 1"
     inkscape:groupmode="layer"
     id="layer1"
     transform="translate(186.06226,275.74555)">
    <g
       id="g1614">
      <path
         inkscape:connector-curvature="0"
         id="path164"
         style="fill:#7b7979;fill-opacity:1;fill-rule:nonzero;stroke:none;stroke-width:5.53845501"
         d="m 251.92985,71.292939 32.75996,-0.210374 -3.16252,8.534751 -10.99378,0.0785 -9.65915,26.041794 -10.77225,0.0628 9.63686,-26.030649 -10.98263,0.0785 z" />
      <path
         inkscape:connector-curvature="0"
         id="path168"
         style="fill:#7b7979;fill-opacity:1;fill-rule:nonzero;stroke:none;stroke-width:5.53845501"
         d="m 285.16048,71.081937 11.27636,-0.0785 -1.37842,24.834505 16.97531,-24.928702 10.93301,-0.0628 -25.77051,34.64862 -11.67513,0.0942 z" />
      <path
         inkscape:connector-curvature="0"
         id="path172"
         style="fill:#ed1c24;fill-opacity:1;fill-rule:nonzero;stroke:none;stroke-width:5.53845501"
         d="m 163.13566,-114.232 c 1.61171,-0.0112 3.26205,-1.296 3.67746,-2.85231 l 13.42532,-50.77655 c 0.41604,-1.55081 -0.56518,-2.81908 -2.17674,-2.80247 l -67.97344,0.47083 c -1.60607,0.0112 -3.26206,1.2905 -3.67197,2.84677 l -13.430818,50.78763 c -0.409758,1.5563 0.569894,2.81908 2.176744,2.80801 z" />
      <path
         inkscape:connector-curvature="0"
         id="path176"
         style="fill:#ed1c24;fill-opacity:1;fill-rule:nonzero;stroke:none;stroke-width:5.53845501"
         d="m 91.619768,-100.36149 c -1.611717,0.0112 -3.262212,1.290506 -3.677622,2.846756 L 48.347858,52.095518 c -0.416039,1.555826 0.565184,2.81917 2.176587,2.808023 l 67.990085,-0.475697 c 1.60606,-0.01115 3.26205,-1.295213 3.67746,-2.846801 l 39.58346,-149.599152 c 0.40975,-1.550803 -0.5699,-2.819071 -2.17675,-2.808011 z" />
      <path
         inkscape:connector-curvature="0"
         id="path180"
         style="fill:#ed1c24;fill-opacity:1;fill-rule:nonzero;stroke:none;stroke-width:5.53845501"
         d="m -17.323869,-17.719982 c -2.187734,7.144602 -6.535413,12.8325998 -13.07632,17.08058647 C -36.913465,3.630759 -46.506053,5.8129035 -59.211235,5.9070694 l -37.611591,0.2602987 13.990034,-45.3654931 37.456637,-0.254804 c 12.932354,-0.09891 21.328636,1.85539 25.233116,5.854146 3.93792,3.97662 4.868433,9.265848 2.81917,15.878754 M -129.46661,-123.53218 c 23.41119,-0.15543 82.284848,-0.57053 121.5193025,-0.84182 1.9440765,0.21054 9.0332124,3.58338 8.9556566,13.73538 -0.0313992,0.10518 0,0.20488 -0.0313992,0.32121 -0.12559647,0.79754 -0.14129603,1.40118 -0.0941973,1.89415 -0.17740502,1.41233 -0.51494554,2.92431 -1.0079117,4.5083 -2.1544505,7.028302 -6.0812242,12.433833 -11.7249019,16.161223 -5.676803,3.749525 -14.250333,5.654761 -25.76486,5.743369 l -32.034637,0.221521 15.845565,-43.582103 -75.660887,1.83877 -56.59738,178.299449 127.31793,-0.885455 c 5.411167,-0.0471 16.74829,-1.113099 33.99504,-3.289843 C -11.81144,48.985749 -1.7258862,46.47696 5.4852354,43.087425 17.143571,37.604354 27.301186,30.221479 35.891357,20.927968 44.503664,11.612305 50.618014,1.161234 54.206933,-10.463976 c 4.397604,-14.233832 3.987688,-26.025206 -1.191596,-35.385205 -5.161858,-9.359983 -15.734726,-15.928584 -31.685479,-19.639363 12.411758,-3.782762 22.519448,-8.806134 30.339713,-15.175367 11.735891,-9.515063 19.622722,-20.907669 23.698955,-34.122409 4.885075,-15.77906 4.430887,-30.47814 -4.613472,-41.05658 -3.5335,-4.15938 -8.152624,-7.45476 -13.84607,-9.95813 -10.10769,-5.53292 -21.649849,-5.35016 -21.649849,-5.35016 l -151.238565,-0.36549 z" />
      <path
         inkscape:connector-curvature="0"
         id="path184"
         style="fill:#ed1c24;fill-opacity:1;fill-rule:nonzero;stroke:none;stroke-width:5.53845501"
         d="m 391.05087,-152.30888 c -3.52801,-4.22585 -8.15263,-7.54339 -13.84623,-10.08554 -3.69411,-2.04369 -7.57096,-3.31754 -11.02156,-4.11507 -1.46163,-0.55938 -3.0184,-1.09112 -4.6634,-1.6006 -9.57045,-3.12924 -21.50023,-5.20615 -36.50948,-5.54401 0,0 -55.51741,-6.18091 -98.38506,27.40982 -10.14646,7.14462 -19.40669,15.49107 -27.71992,25.11689 -15.39703,17.81723 -26.97232,38.702742 -34.70953,62.706395 -7.36623,22.78521 -9.44862,42.95627 -6.2861,60.4799455 3.17351,17.5292175 11.35376,30.6885875 24.54076,39.4615015 13.2093,8.789555 32.55508,13.070825 58.05964,12.904566 20.6972,-0.141296 39.40071,-2.735962 56.10457,-7.786981 16.67074,-5.051176 37.05787,-14.494147 61.08919,-28.323732 l 33.24177,-104.111877 -102.56663,0.719981 -14.75994,45.731027 44.39631,-0.321213 -9.66465,31.0984242 C 297.94385,-3.208126 289.02697,0.59678776 281.57219,2.8343203 274.1229,5.0773948 266.67378,6.2293971 259.25212,6.2792432 243.62824,6.3954199 233.083,1.3777152 227.61657,-8.752127 c -5.4388,-10.14091 -4.33669,-27.099653 3.34526,-50.892868 7.22761,-22.386426 16.83134,-38.780251 28.7999,-49.175935 11.9852,-10.41783 25.24976,-15.67937 39.81047,-15.77352 9.78083,-0.0769 17.09714,2.07691 21.98206,6.43015 4.88491,4.34768 7.40501,10.2406 7.36058,18.52058 l 63.31004,0.310223 c 0,0 -0.6374,2.04369 3.43946,-11.342763 0.77556,-2.54769 2.74711,-11.11568 2.79138,-13.46953 1.10211,-10.75013 -0.97494,-20.51444 -7.40485,-28.16304" />
      <path
         inkscape:connector-curvature="0"
         id="path188"
         style="fill:#ed1c24;fill-opacity:1;fill-rule:nonzero;stroke:none;stroke-width:5.53845501"
         d="m 318.89695,92.208363 c 0,0 566.56726,-101.6749456 487.46707,-163.722272 -66.9211,-52.471321 -99.68105,-62.108221 -99.68105,-62.108221 0,0 25.23311,92.209739 -387.78602,225.830493" />
      <path
         inkscape:connector-curvature="0"
         id="path192"
         style="fill:#f57d14;fill-opacity:1;fill-rule:nonzero;stroke:none;stroke-width:5.53845501"
         d="m 392.58393,25.868148 c 0,0 222.78977,-157.092678 189.1935,-225.874758 0,0 78.85653,25.6652 77.64924,51.9064 -1.26853,28.04675 -34.95319,69.934084 -114.14757,106.68727 C 453.80043,1.0503951 392.58393,25.868148 392.58393,25.868148" />
      <path
         inkscape:connector-curvature="0"
         id="path196"
         style="fill:#f9ae0b;fill-opacity:1;fill-rule:nonzero;stroke:none;stroke-width:5.53845501"
         d="m 422.48044,-52.278291 c 0,0 59.30022,-27.393203 107.77826,-97.969739 33.16987,-48.3064 -17.30201,-80.98329 -56.43128,-90.41528 0,0 41.20067,26.34643 -5.23926,116.50142 -25.32747,49.175929 -46.10772,71.883599 -46.10772,71.883599" />
      <path
         inkscape:connector-curvature="0"
         id="path200"
         style="fill:#f3ef16;fill-opacity:1;fill-rule:nonzero;stroke:none;stroke-width:5.53845501"
         d="m 359.00697,-275.74555 c 0,0 151.97518,19.63936 82.49521,148.46384 0,0 -2.59199,-108.69219 -82.49521,-148.46384" />
    </g>
  </g>
</svg>
